<?xml version="1.0" encoding="iso-8859-1"?>
<!-- Generator: Adobe Illustrator 13.0.0, SVG Export Plug-In . SVG Version: 6.00 Build 14948)  -->
<!DOCTYPE svg PUBLIC "-//W3C//DTD SVG 1.1//EN" "http://www.w3.org/Graphics/SVG/1.1/DTD/svg11.dtd">
<svg version="1.1" id="Layer_1" xmlns="http://www.w3.org/2000/svg" xmlns:xlink="http://www.w3.org/1999/xlink" x="0px" y="0px"
	 width="289.822px" height="271.064px" viewBox="0 0 289.822 271.064" style="enable-background:new 0 0 289.822 271.064;"
	 xml:space="preserve">
<path d="M215.05,249.424c-1.147,1.738-3.449,2.242-5.142,1.125L1.623,112.942c-1.689-1.117-2.131-3.435-0.981-5.17L70.705,1.719
	c1.148-1.736,3.45-2.239,5.143-1.124l208.284,137.606c1.691,1.117,2.134,3.432,0.983,5.17L215.05,249.424z"/>
<linearGradient id="SVGID_1_" gradientUnits="userSpaceOnUse" x1="682.1013" y1="455.0593" x2="689.4408" y2="326.6175" gradientTransform="matrix(0.8344 0.5512 -0.5512 0.8344 -207.2697 -574.7407)">
	<stop  offset="0" style="stop-color:#242424"/>
	<stop  offset="1" style="stop-color:#212121"/>
</linearGradient>
<path style="fill:url(#SVGID_1_);" d="M289.746,160.43c-0.926-5.207-2.122-10.384-3.18-15.564c-0.372-2.073-0.591-5.447-2.437-6.665
	L75.846,0.594c-1.691-1.115-3.993-0.612-5.143,1.124L0.64,107.772c-1.162,1.758-0.329,3.998,0.06,5.896
	c0.25,1.3,0.545,2.591,0.795,3.893c0.499,2.6,1.091,5.181,1.589,7.779c0.202,0.986,0.415,1.973,0.605,2.959
	c0.296,1.643,0.502,3.572,2.004,4.565L213.979,270.47c1.689,1.114,3.993,0.612,5.142-1.124l70.065-106.056
	C289.769,162.409,289.938,161.378,289.746,160.43"/>
<path d="M215.05,249.424c-1.147,1.738-3.449,2.242-5.142,1.125L1.623,112.942c-1.689-1.117-2.131-3.435-0.981-5.17L70.705,1.719
	c1.148-1.736,3.45-2.239,5.143-1.124l208.284,137.606c1.691,1.117,2.134,3.432,0.983,5.17L215.05,249.424z"/>
<g>
	<g>
		<g>
			<defs>
				<path id="SVGID_2_" d="M82.255,42.788c-6.766-4.468-15.871-2.607-20.339,4.154l-23.57,35.679
					c-4.469,6.764-2.608,15.87,4.156,20.339l160.211,105.845c6.765,4.469,15.87,2.607,20.339-4.156l23.57-35.677
					c4.469-6.764,2.606-15.87-4.156-20.339L82.255,42.788z"/>
			</defs>
			<clipPath id="SVGID_3_">
				<use xlink:href="#SVGID_2_"  style="overflow:visible;"/>
			</clipPath>
			<rect x="-8.28" y="18.298" style="clip-path:url(#SVGID_3_);fill:#DBDBDB;" width="276.5" height="235"/>
		</g>
	</g>
	<g>
		<g>
			<defs>
				<path id="SVGID_4_" d="M82.255,42.788c-6.766-4.468-15.871-2.607-20.339,4.154l-23.57,35.679
					c-4.469,6.764-2.608,15.87,4.156,20.339l160.211,105.845c6.765,4.469,15.87,2.607,20.339-4.156l23.57-35.677
					c4.469-6.764,2.606-15.87-4.156-20.339L82.255,42.788z"/>
			</defs>
			<clipPath id="SVGID_5_">
				<use xlink:href="#SVGID_4_"  style="overflow:visible;"/>
			</clipPath>
			
				<line style="clip-path:url(#SVGID_5_);fill:none;stroke:#231F20;stroke-width:3.3456;" x1="85.613" y1="32.22" x2="70.149" y2="87.837"/>
		</g>
	</g>
	<g>
		<g>
			<defs>
				<path id="SVGID_6_" d="M82.255,42.788c-6.766-4.468-15.871-2.607-20.339,4.154l-23.57,35.679
					c-4.469,6.764-2.608,15.87,4.156,20.339l160.211,105.845c6.765,4.469,15.87,2.607,20.339-4.156l23.57-35.677
					c4.469-6.764,2.606-15.87-4.156-20.339L82.255,42.788z"/>
			</defs>
			<clipPath id="SVGID_7_">
				<use xlink:href="#SVGID_6_"  style="overflow:visible;"/>
			</clipPath>
			<g style="clip-path:url(#SVGID_7_);">
				<circle style="fill:#383838;" cx="94.728" cy="96.431" r="28.019"/>
				<circle style="fill:#C7C7C7;" cx="94.728" cy="96.43" r="11.929"/>
				<circle style="fill:#949494;" cx="94.728" cy="96.43" r="9.155"/>
				<circle style="fill:#F2F2F2;" cx="94.728" cy="96.43" r="7.491"/>
			</g>
		</g>
	</g>
	<g>
		<g>
			<defs>
				<path id="SVGID_8_" d="M82.255,42.788c-6.766-4.468-15.871-2.607-20.339,4.154l-23.57,35.679
					c-4.469,6.764-2.608,15.87,4.156,20.339l160.211,105.845c6.765,4.469,15.87,2.607,20.339-4.156l23.57-35.677
					c4.469-6.764,2.606-15.87-4.156-20.339L82.255,42.788z"/>
			</defs>
			<clipPath id="SVGID_9_">
				<use xlink:href="#SVGID_8_"  style="overflow:visible;"/>
			</clipPath>
			
				<line style="clip-path:url(#SVGID_9_);fill:none;stroke:#231F20;stroke-width:3.3456;" x1="248.887" y1="140.089" x2="203.796" y2="176.131"/>
		</g>
	</g>
	<g>
		<g>
			<defs>
				<path id="SVGID_10_" d="M82.255,42.788c-6.766-4.468-15.871-2.607-20.339,4.154l-23.57,35.679
					c-4.469,6.764-2.608,15.87,4.156,20.339l160.211,105.845c6.765,4.469,15.87,2.607,20.339-4.156l23.57-35.677
					c4.469-6.764,2.606-15.87-4.156-20.339L82.255,42.788z"/>
			</defs>
			<clipPath id="SVGID_11_">
				<use xlink:href="#SVGID_10_"  style="overflow:visible;"/>
			</clipPath>
			<g style="clip-path:url(#SVGID_11_);">
				<circle style="fill:#383838;" cx="187.177" cy="157.507" r="28.019"/>
				<circle style="fill:#C7C7C7;" cx="187.176" cy="157.506" r="11.93"/>
				<circle style="fill:#949494;" cx="187.176" cy="157.506" r="9.155"/>
				<circle style="fill:#F2F2F2;" cx="187.176" cy="157.507" r="7.491"/>
			</g>
		</g>
	</g>
</g>
<g id="Layer_3">
	<path d="M70.567,130.021l49.5-68l91.5,58.5c0,0-46,73-46.5,74.5S70.567,130.021,70.567,130.021z"/>
</g>
<line style="fill:none;stroke:#5E5E5E;stroke-width:1.8349;" x1="63.897" y1="15.749" x2="274.879" y2="155.137"/>
<path style="fill:#FFFFFF;" d="M169.026,169.626c-1.396,2.113-4.242,2.695-6.356,1.298l-69.272-45.766
	c-2.113-1.396-2.696-4.242-1.299-6.356l24.632-37.282c1.396-2.113,4.243-2.695,6.354-1.301l69.274,45.769
	c2.114,1.396,2.695,4.243,1.299,6.354L169.026,169.626z"/>
<g id="Layer_2">
	<line style="fill:none;stroke:#999999;stroke-width:0.9174;" x1="119.329" y1="92.421" x2="182.609" y2="134.228"/>
	<line style="fill:none;stroke:#999999;stroke-width:0.9174;" x1="114.271" y1="100.076" x2="177.552" y2="141.882"/>
	<line style="fill:none;stroke:#999999;stroke-width:0.9174;" x1="109.214" y1="107.73" x2="172.495" y2="149.537"/>
	<line style="fill:none;stroke:#999999;stroke-width:0.9174;" x1="104.157" y1="115.385" x2="167.438" y2="157.192"/>
	<g>
		<path d="M138.888,102.753l0.073,0.049c0.39,1.017,0.234,2.053-0.464,3.107l-0.889,1.345c-1.573,2.381-5.622,5.813-12.146,10.289
			c-2.584,2.071-4.426,3.774-5.521,5.11c-0.964,0.05-1.521,0.026-1.669-0.073c0.686-3.095,2.241-8.667,4.665-16.711
			c0.343-1.777,0.613-2.813,0.812-3.113l2.3-3.48c0.216-0.13,0.729-0.057,1.548,0.227c0.107,0.072-0.164,0.951-0.818,2.639
			c-1.476,5.265-2.503,9.517-3.082,12.755l0.015,0.14l0.09,0.059c2.038-1.327,5.366-4.481,9.985-9.461
			c1.904-1.604,3.359-2.539,4.366-2.805L138.888,102.753z"/>
		<path d="M146.699,106.625l0.15,0.101c-0.448,2.864-2.585,7.193-6.409,12.981l-0.188,0.284l0.075,0.049
			c1.297,0.657,2.858,1.587,4.681,2.792l2.751,1.817l2.626-3.977c2.731-4.135,4.775-6.447,6.133-6.939l0.073,0.049
			c0.429,0.827,0.515,1.434,0.258,1.822l-6.973,10.552c0.378,0.25,0.33,0.733-0.144,1.45c-0.283,0.429-0.728,0.688-1.328,0.774
			l-5.104,7.728c-0.829,0.064-1.34,0.046-1.524-0.063c0.436-2.217,1.699-4.91,3.792-8.078l0.721-1.091l-7.368-4.868l-0.287,0.436
			c-1.031,1.563-3.603,4.357-7.71,8.388c-1.029,1.323-1.659,1.908-1.89,1.756c-0.348-0.016-0.637-0.099-0.866-0.249
			c-0.46-0.775-0.497-1.459-0.106-2.046l0.435-0.658c0.687-1.035,3.007-3.607,6.968-7.72c0.87-1.013,1.809-2.226,2.813-3.638
			c1.751-3.28,3.229-5.832,4.434-7.655l0.238-0.357C144.254,108.28,145.505,107.068,146.699,106.625z"/>
		<path d="M172.64,125.202c0.073,0.407,0.05,0.705-0.075,0.896l-0.721,1.091c-0.244,0.369-1.315-0.024-3.216-1.181
			c-3.94-1.657-6.355-1.814-7.246-0.471c-0.273,0.418,0.338,3.205,1.84,8.363c0.734,3.521,0.946,5.897,0.632,7.136
			c-0.17,1.535-0.873,3.238-2.11,5.111l-0.31,0.632c-1.323,2.003-3.839,1.78-7.544-0.668c-4.125-2.726-6.161-5.051-6.106-6.975
			l0.261-0.56l0.533-0.807c0.454-0.688,1.071-0.775,1.848-0.263l0.301,0.197c0.775,0.515,1.1,0.87,0.968,1.069
			c-0.46,0.698-0.158,1.67,0.907,2.917c3.782,4.433,6.381,4.953,7.792,1.563c2.007-3.04,1.92-6.667-0.262-10.883
			c-1.733-3.852-2.017-6.664-0.845-8.437l0.935-1.574l0.146-0.224c1.113-1.686,3.709-1.479,7.792,0.616L172.64,125.202z"/>
	</g>
</g>
<polyline style="stroke:#303030;" points="6.255,130.08 4.063,118.39 13.147,124.388 14.517,135.701 "/>
</svg>
